<mxfile host="app.diagrams.net" modified="2023-08-10T07:23:45.409Z" agent="Mozilla/5.0 (Windows NT 10.0; Win64; x64) AppleWebKit/537.36 (KHTML, like Gecko) Chrome/115.0.0.0 Safari/537.36 OPR/101.0.0.0" version="21.6.7" etag="n9YWU2Eyl9OrSVrRpfdz" type="github">
  <diagram name="Page-1" id="dnln7_j94-a14qkbBwlL">
    <mxGraphModel>
      <root>
        <mxCell id="0" />
        <mxCell id="1" parent="0" />
      </root>
    </mxGraphModel>
  </diagram>
</mxfile>
